<svg width="100" height="100" viewBox="0 0 100 100" fill="none" xmlns="http://www.w3.org/2000/svg">
<path d="M35.4167 37.5V31.25H39.5833V37.5H45.8333V41.6667H39.5833V47.9167H35.4167V41.6667H29.1667V37.5H35.4167Z" fill="url(#paint0_radial_1_131)"/>
<path fill-rule="evenodd" clip-rule="evenodd" d="M8.33333 27.0833C8.33333 25.4257 8.99181 23.836 10.1639 22.6639C11.336 21.4918 12.9257 20.8333 14.5833 20.8333H60.4167C62.0743 20.8333 63.664 21.4918 64.8361 22.6639C66.0082 23.836 66.6667 25.4257 66.6667 27.0833V39.5833H74.4125C75.9839 39.5835 77.4976 40.1756 78.6521 41.2417L89.6562 51.3979C90.2904 51.9833 90.7963 52.6937 91.1424 53.4843C91.4884 54.275 91.6669 55.1287 91.6667 55.9917V72.9167H85.1542C84.6908 74.7047 83.6467 76.2882 82.186 77.4186C80.7252 78.549 78.9304 79.1624 77.0833 79.1624C75.2363 79.1624 73.4415 78.549 71.9807 77.4186C70.5199 76.2882 69.4759 74.7047 69.0125 72.9167H49.7375C49.2741 74.7047 48.2301 76.2882 46.7693 77.4186C45.3085 78.549 43.5137 79.1624 41.6667 79.1624C39.8196 79.1624 38.0248 78.549 36.564 77.4186C35.1033 76.2882 34.0592 74.7047 33.5958 72.9167H30.9875C30.5241 74.7047 29.4801 76.2882 28.0193 77.4186C26.5585 78.549 24.7637 79.1624 22.9167 79.1624C21.0696 79.1624 19.2748 78.549 17.814 77.4186C16.3533 76.2882 15.3092 74.7047 14.8458 72.9167H8.33333V27.0833ZM77.0833 62.5C75.2357 62.5003 73.4405 63.1142 71.9796 64.2455C70.5188 65.3767 69.4751 66.9612 69.0125 68.75H66.6667V58.3333H87.5V68.75H85.1542C84.6916 66.9612 83.6479 65.3767 82.187 64.2455C80.7262 63.1142 78.931 62.5003 77.0833 62.5ZM75.825 44.3021L86.5125 54.1667H66.6667V43.75H74.4125C74.936 43.75 75.4402 43.9471 75.825 44.3021ZM14.5833 25C14.0308 25 13.5009 25.2195 13.1102 25.6102C12.7195 26.0009 12.5 26.5308 12.5 27.0833V54.1667H62.5V27.0833C62.5 26.5308 62.2805 26.0009 61.8898 25.6102C61.4991 25.2195 60.9692 25 60.4167 25H14.5833ZM41.6667 62.5C43.5143 62.5003 45.3095 63.1142 46.7704 64.2455C48.2312 65.3767 49.2749 66.9612 49.7375 68.75H62.5V58.3333H12.5V68.75H14.8458C15.3092 66.962 16.3533 65.3785 17.814 64.2481C19.2748 63.1176 21.0696 62.5043 22.9167 62.5043C24.7637 62.5043 26.5585 63.1176 28.0193 64.2481C29.4801 65.3785 30.5241 66.962 30.9875 68.75H33.5958C34.5208 65.1563 37.7833 62.5 41.6667 62.5ZM22.9167 75C21.8116 75 20.7518 74.561 19.9704 73.7796C19.189 72.9982 18.75 71.9384 18.75 70.8333C18.75 69.7283 19.189 68.6685 19.9704 67.8871C20.7518 67.1057 21.8116 66.6667 22.9167 66.6667C24.0217 66.6667 25.0815 67.1057 25.8629 67.8871C26.6443 68.6685 27.0833 69.7283 27.0833 70.8333C27.0833 71.9384 26.6443 72.9982 25.8629 73.7796C25.0815 74.561 24.0217 75 22.9167 75ZM45.8333 70.8333C45.8333 71.9384 45.3943 72.9982 44.6129 73.7796C43.8315 74.561 42.7717 75 41.6667 75C40.5616 75 39.5018 74.561 38.7204 73.7796C37.939 72.9982 37.5 71.9384 37.5 70.8333C37.5 69.7283 37.939 68.6685 38.7204 67.8871C39.5018 67.1057 40.5616 66.6667 41.6667 66.6667C42.7717 66.6667 43.8315 67.1057 44.6129 67.8871C45.3943 68.6685 45.8333 69.7283 45.8333 70.8333ZM77.0833 75C78.1884 75 79.2482 74.561 80.0296 73.7796C80.811 72.9982 81.25 71.9384 81.25 70.8333C81.25 69.7283 80.811 68.6685 80.0296 67.8871C79.2482 67.1057 78.1884 66.6667 77.0833 66.6667C75.9783 66.6667 74.9185 67.1057 74.1371 67.8871C73.3557 68.6685 72.9167 69.7283 72.9167 70.8333C72.9167 71.9384 73.3557 72.9982 74.1371 73.7796C74.9185 74.561 75.9783 75 77.0833 75Z" fill="url(#paint1_radial_1_131)"/>
<defs>
<radialGradient id="paint0_radial_1_131" cx="0" cy="0" r="1" gradientUnits="userSpaceOnUse" gradientTransform="translate(45.0781 37.6548) rotate(150.512) scale(20.8473 123.888)">
<stop stop-color="#E9B633"/>
<stop offset="1" stop-color="#BE6D3F"/>
</radialGradient>
<radialGradient id="paint1_radial_1_131" cx="0" cy="0" r="1" gradientUnits="userSpaceOnUse" gradientTransform="translate(87.8906 43.2484) rotate(158.405) scale(97.5827 463.142)">
<stop stop-color="#E9B633"/>
<stop offset="1" stop-color="#BE6D3F"/>
</radialGradient>
</defs>
</svg>
