<svg width="60" height="61" viewBox="0 0 60 61" fill="none" xmlns="http://www.w3.org/2000/svg">
<path d="M27.5 16.75H25V19.25H27.5V16.75ZM30 16.75H32.5V19.25H30V16.75ZM37.5 16.75H35V19.25H37.5V16.75ZM25 21.75H27.5V24.25H25V21.75ZM32.5 21.75H30V24.25H32.5V21.75ZM35 21.75H37.5V24.25H35V21.75ZM27.5 26.75H25V29.25H27.5V26.75ZM30 26.75H32.5V29.25H30V26.75ZM37.5 26.75H35V29.25H37.5V26.75ZM25 31.75H27.5V34.25H25V31.75ZM32.5 31.75H30V34.25H32.5V31.75ZM25 36.75H27.5V39.25H25V36.75ZM32.5 36.75H30V39.25H32.5V36.75ZM25 41.75H27.5V44.25H25V41.75ZM32.5 41.75H30V44.25H32.5V41.75ZM25 46.75H27.5V49.25H25V46.75ZM32.5 46.75H30V49.25H32.5V46.75ZM38.75 38H42.5V35.5H38.75V38ZM42.5 43H38.75V40.5H42.5V43ZM38.75 48H42.5V45.5H38.75V48Z" fill="#275122" fill-opacity="0.5"/>
<path fill-rule="evenodd" clip-rule="evenodd" d="M21.25 5.5L41.25 13V30.5H46.25C46.5815 30.5 46.8995 30.6317 47.1339 30.8661C47.3683 31.1005 47.5 31.4185 47.5 31.75V53H48.75C49.0815 53 49.3995 53.1317 49.6339 53.3661C49.8683 53.6005 50 53.9185 50 54.25C50 54.5815 49.8683 54.8995 49.6339 55.1339C49.3995 55.3683 49.0815 55.5 48.75 55.5H11.25C10.9185 55.5 10.6005 55.3683 10.3661 55.1339C10.1317 54.8995 10 54.5815 10 54.25C10 53.9185 10.1317 53.6005 10.3661 53.3661C10.6005 53.1317 10.9185 53 11.25 53H12.5V26.75C12.5 26.4185 12.6317 26.1005 12.8661 25.8661C13.1005 25.6317 13.4185 25.5 13.75 25.5H16.25V16.75H18.75V25.5H21.25V5.5ZM23.75 9.1075L38.75 14.7325V30.5H35C34.6685 30.5 34.3505 30.6317 34.1161 30.8661C33.8817 31.1005 33.75 31.4185 33.75 31.75V53H23.75V9.1075ZM15 28V53H21.25V28H15ZM45 53H42.5V50.5H38.75V53H36.25V33H45V53Z" fill="#275122" fill-opacity="0.5"/>
</svg>
