<svg width="60" height="60" viewBox="0 0 60 60" fill="none" xmlns="http://www.w3.org/2000/svg">
<path fill-rule="evenodd" clip-rule="evenodd" d="M6.2834 15.0049C6.4709 18.3687 7.4284 20.4512 8.8309 21.7349C8.47971 21.994 8.20659 22.3446 8.04145 22.7486C7.87631 23.1525 7.82552 23.5941 7.89465 24.0249C8.6109 28.5687 10.3997 38.1787 14.0659 49.0112C14.2097 49.4781 14.4994 49.8866 14.8924 50.1768C15.2854 50.4669 15.7611 50.6235 16.2497 50.6235C16.7382 50.6235 17.2139 50.4669 17.6069 50.1768C17.9999 49.8866 18.2896 49.4781 18.4334 49.0112C22.1009 38.1787 23.8897 28.5687 24.6047 24.0249C24.6736 23.5941 24.6228 23.1525 24.4577 22.7486C24.2925 22.3447 24.0195 21.994 23.6684 21.7349C25.0709 20.4512 26.0284 18.3687 26.2159 15.0049C26.2235 14.8416 26.1974 14.6785 26.1393 14.5257C26.0812 14.3729 25.9923 14.2337 25.8781 14.1167C25.7639 13.9997 25.6269 13.9075 25.4756 13.8457C25.3243 13.7839 25.1618 13.7538 24.9984 13.7574C22.9634 13.7874 21.3472 13.9112 20.0859 14.3349C19.5647 12.9612 18.5146 11.6649 16.9321 10.4824C16.735 10.3353 16.4956 10.2559 16.2497 10.2559C16.0037 10.2559 15.7643 10.3353 15.5672 10.4824C13.9984 11.6562 12.9509 12.9399 12.4272 14.3012C11.2022 13.9399 9.5984 13.7962 7.50465 13.7599C7.34113 13.7558 7.17851 13.7854 7.02691 13.8468C6.87531 13.9083 6.73797 14.0002 6.62342 14.117C6.50888 14.2338 6.41958 14.3728 6.36109 14.5256C6.30259 14.6784 6.27615 14.8415 6.2834 15.0049ZM18.6009 17.4712L17.7484 15.2212C17.5109 14.5974 17.0497 13.8962 16.2497 13.1587C15.4584 13.8899 14.9972 14.5837 14.7597 15.2012L13.9297 17.3512L11.7197 16.6987C11.0672 16.5062 10.1771 16.3787 8.9259 16.3099C9.2984 18.7199 10.1909 19.7387 11.0059 20.2649C12.1697 21.0187 13.8672 21.2474 16.2122 21.2499H16.2871C18.6334 21.2474 20.3296 21.0187 21.4934 20.2649C22.3097 19.7387 23.2034 18.7187 23.5747 16.3024C22.3622 16.3662 21.5121 16.4924 20.8821 16.7037L18.6009 17.4712ZM10.3821 23.7499H22.1172C21.7597 26.0087 21.1372 29.4999 20.1547 33.7499H14.9997V36.2499H19.5559C18.6934 39.7274 17.6059 43.6037 16.2497 47.6624C15.8166 46.3642 15.402 45.0599 15.0059 43.7499H16.2497V41.2499H14.2734C13.2202 37.5348 12.3038 33.7823 11.5259 29.9999H14.9997V27.4999H11.0334C10.7989 26.2531 10.5822 25.0029 10.3834 23.7499H10.3821Z" fill="#275122" fill-opacity="0.5"/>
<path d="M47.8021 35.0374C48.1237 35.1177 48.4001 35.3224 48.5708 35.6065C48.7414 35.8906 48.7923 36.2308 48.7121 36.5524C48.3643 37.9848 47.6291 39.2939 46.5869 40.3364C45.5447 41.3788 44.2357 42.1143 42.8034 42.4624C42.6437 42.5036 42.4775 42.5128 42.3142 42.4895C42.151 42.4662 41.9939 42.4108 41.8522 42.3266C41.7105 42.2423 41.5868 42.1308 41.4883 41.9985C41.3898 41.8663 41.3185 41.7158 41.2784 41.5558C41.2384 41.3959 41.2303 41.2296 41.2548 41.0665C41.2793 40.9034 41.3358 40.7468 41.4211 40.6057C41.5064 40.4645 41.6187 40.3416 41.7517 40.2441C41.8847 40.1466 42.0356 40.0763 42.1959 40.0374C43.189 39.7995 44.0968 39.2913 44.8189 38.5692C45.541 37.8471 46.0492 36.9393 46.2871 35.9462C46.3677 35.6249 46.5725 35.3487 46.8566 35.1783C47.1407 35.0079 47.4807 34.9572 47.8021 35.0374Z" fill="#275122" fill-opacity="0.5"/>
<path fill-rule="evenodd" clip-rule="evenodd" d="M40.8125 26.2837C39.4275 23.0425 39.6675 19.6 42.1338 17.1337L40.3662 15.3662C37.4537 18.2787 36.9488 22.0875 37.925 25.5887C32.2063 23 26.25 27.76 26.25 35C26.25 41.9037 32.4062 47.5 40 47.5C47.5938 47.5 53.75 41.9037 53.75 35C53.75 27.225 46.8813 22.3112 40.8125 26.2837ZM40 30.0762L38.4375 28.8262C36.1163 26.9687 33.8275 27.0725 32.095 28.1425C30.2625 29.275 28.75 31.6975 28.75 35C28.75 40.3037 33.5575 45 40 45C46.4425 45 51.25 40.3037 51.25 35C51.25 31.6975 49.7375 29.275 47.905 28.1425C46.1725 27.0725 43.8838 26.9687 41.5613 28.8275L40 30.0762Z" fill="#275122" fill-opacity="0.5"/>
<path d="M42.5 22.5C46.25 22.5 48.75 20 48.75 16.25C45 16.25 42.5 18.75 42.5 22.5Z" fill="#275122" fill-opacity="0.5"/>
</svg>
