<svg width="100" height="100" viewBox="0 0 100 100" fill="none" xmlns="http://www.w3.org/2000/svg">
<path d="M45.8333 45.8333V31.25H54.1667V45.8333H68.75V54.1667H54.1667L54.1646 68.75H45.8313V54.1667H31.2479V45.8333H45.8333Z" fill="url(#paint0_radial_1_115)"/>
<path fill-rule="evenodd" clip-rule="evenodd" d="M28.7979 77.0646C33.8979 81.6708 39.4854 85.475 45.7938 88.475C49.1729 90.0792 53.1813 89.9333 56.4208 88.0854C61.8854 84.9688 66.6417 81.2167 71.2396 77.0646C80.9854 68.2604 86.6688 56.1458 87.0417 43.3688L87.4771 28.4708C87.5271 26.7375 87.4792 22.9167 87.4792 22.9167C85.2903 22.5714 83.0939 22.2755 80.8917 22.0292C74.0792 21.2125 67.2958 20.4021 61.3438 16.7625L57.1 14.1688C55.2978 13.0772 53.231 12.5001 51.124 12.5001C49.0169 12.5001 46.9502 13.0772 45.1479 14.1688L41.0833 16.6542C34.2771 20.8125 25.9833 21.6 17.9563 22.3625C16.1375 22.5354 14.3313 22.7083 12.5604 22.9167C12.5604 22.9167 12.5104 26.7604 12.5604 28.5188L12.9958 43.3688C13.3688 56.1458 19.05 68.2604 28.7979 77.0646ZM16.7063 26.6688C16.7063 27.3354 16.7125 27.95 16.7271 28.3979L17.1604 43.2479C17.5 54.8521 22.6604 65.9063 31.5896 73.9729C36.4063 78.3208 41.6583 81.8938 47.5833 84.7104C48.65 85.2137 49.8218 85.4543 51.0005 85.4118C52.1792 85.3694 53.3306 85.0453 54.3583 84.4667C59.4729 81.55 63.9813 78.0063 68.4479 73.9729C77.3771 65.9063 82.5375 54.8542 82.8771 43.2479L83.3125 28.3479C83.325 27.8833 83.3333 27.2271 83.3333 26.5271C82.3583 26.4021 81.3667 26.2833 80.3542 26.1604L80.2417 26.1479C77.9274 25.8884 75.6197 25.5723 73.3208 25.2C68.6458 24.4083 63.7542 23.1188 59.1708 20.3188L54.9271 17.7229C53.7791 17.0312 52.4642 16.6656 51.124 16.6656C49.7837 16.6656 48.4688 17.0312 47.3208 17.7229L43.2563 20.2083C38.4229 23.1604 33.0896 24.5604 27.95 25.3875C24.7625 25.9 21.3292 26.2271 18.1146 26.5354L16.7063 26.6708V26.6688Z" fill="url(#paint1_radial_1_115)"/>
<defs>
<radialGradient id="paint0_radial_1_115" cx="0" cy="0" r="1" gradientUnits="userSpaceOnUse" gradientTransform="translate(67.0507 45.6607) rotate(150.513) scale(46.9084 278.753)">
<stop stop-color="#E9B633"/>
<stop offset="1" stop-color="#BE6D3F"/>
</radialGradient>
<radialGradient id="paint1_radial_1_115" cx="0" cy="0" r="1" gradientUnits="userSpaceOnUse" gradientTransform="translate(84.1032 42.1218) rotate(149.822) scale(94.4144 569.035)">
<stop stop-color="#E9B633"/>
<stop offset="1" stop-color="#BE6D3F"/>
</radialGradient>
</defs>
</svg>
