<svg width="61" height="61" viewBox="0 0 61 61" fill="none" xmlns="http://www.w3.org/2000/svg">
<path fill-rule="evenodd" clip-rule="evenodd" d="M59.9 3.42823L58.255 3.16656L57.8233 1.55656L60.305 0.889893L59.9 3.42823ZM37.8667 26.4782L36.4483 27.3516L36.445 27.3482L36.44 27.3399L36.4233 27.3132L36.3667 27.2182C36.32 27.1382 36.25 27.0216 36.1667 26.8732C35.9332 26.4652 35.7081 26.0523 35.4917 25.6349C34.8067 24.3228 34.2087 22.9671 33.7017 21.5766C33.1383 20.0032 32.655 18.2016 32.58 16.4582C32.5067 14.7216 32.83 12.8366 34.1233 11.3582C35.285 10.0316 37.475 8.80989 39.7767 7.75323C42.1617 6.65489 44.9683 5.60156 47.6267 4.68989C50.9194 3.56535 54.2454 2.54044 57.6 1.61656L57.7667 1.56989L57.825 1.55323L58.2583 3.16489L59.9033 3.42656L59.8933 3.48823L59.865 3.66489C59.6986 4.68736 59.5242 5.70851 59.3417 6.72823C58.8977 9.2359 58.4132 11.7362 57.8883 14.2282C57.295 17.0299 56.605 19.9666 55.8733 22.4249C55.5486 23.5493 55.1665 24.6563 54.7283 25.7416C54.3483 26.6582 53.8983 27.5482 53.3517 28.1749C52.1817 29.5116 50.36 29.9299 48.7683 30.0366C47.1083 30.1482 45.2683 29.9466 43.6133 29.6532C42.1373 29.3873 40.6755 29.048 39.2333 28.6366C38.6432 28.4704 38.0564 28.2925 37.4733 28.1032L37.3683 28.0666L37.34 28.0566L37.3317 28.0549H37.3283L37.8683 26.4766L37.8667 26.4782ZM37.8667 26.4782L36.4483 27.3516L36.7617 27.8599L37.3283 28.0549L37.8667 26.4782ZM38.9867 25.0899C40.693 25.6225 42.4301 26.0511 44.1883 26.3732C45.7283 26.6449 47.2683 26.7982 48.545 26.7116C49.8933 26.6216 50.57 26.2916 50.8417 25.9816C51.015 25.7816 51.2983 25.3082 51.6483 24.4649C52.0419 23.487 52.3851 22.4896 52.6767 21.4766C53.3717 19.1432 54.04 16.3049 54.6267 13.5399C55.1896 10.8648 55.7053 8.17991 56.1733 5.48656L55.6583 5.63656C53.81 6.18156 51.3133 6.94989 48.7083 7.84323C46.0983 8.73823 43.41 9.74989 41.1683 10.7816C38.8417 11.8516 37.2717 12.8232 36.6317 13.5549C36.12 14.1382 35.8567 15.0366 35.9117 16.3149C35.965 17.5866 36.33 19.0316 36.84 20.4499C37.4239 22.0542 38.142 23.6063 38.9867 25.0899ZM7.105 7.62323L6.67334 9.23323L5.02667 9.49489L4.62334 6.95823L7.10667 7.62489L7.105 7.62323ZM23.2417 28.1782L24.66 29.0499L24.6633 29.0466L24.6667 29.0399L24.68 29.0182L24.7283 28.9382C24.9796 28.5101 25.2197 28.0755 25.4483 27.6349C25.8883 26.7882 26.45 25.6066 26.92 24.2999C27.3833 23.0066 27.7867 21.5082 27.8483 20.0482C27.9117 18.5932 27.6417 16.9699 26.5183 15.6866C25.525 14.5499 23.6867 13.5366 21.82 12.6766C19.8683 11.7782 17.5767 10.9182 15.4117 10.1766C12.7302 9.26074 10.0218 8.42591 7.29 7.67323L7.15334 7.63656L7.105 7.62323L6.67334 9.23323L5.02667 9.49489L5.035 9.54489L5.05834 9.68989L5.14834 10.2332C5.59805 12.9291 6.10428 15.6153 6.66667 18.2899C7.15 20.5699 7.71334 22.9649 8.31 24.9732C8.61 25.9766 8.92334 26.9116 9.25167 27.6999C9.56334 28.4499 9.945 29.2149 10.425 29.7616C11.4583 30.9449 13.0467 31.2949 14.3617 31.3816C15.7483 31.4749 17.27 31.3066 18.6283 31.0682C20.3338 30.762 22.0157 30.3365 23.6617 29.7949L23.7467 29.7666L23.7717 29.7582L23.78 29.7549L23.2417 28.1782ZM23.2417 28.1782L24.66 29.0499L24.3467 29.5599L23.78 29.7549L23.2417 28.1782ZM22.12 26.7882C22.7712 25.631 23.327 24.4225 23.7817 23.1749C24.19 22.0366 24.4767 20.8949 24.5183 19.9049C24.5617 18.9082 24.3517 18.2716 24.01 17.8799C23.5383 17.3432 22.3217 16.5766 20.4267 15.7049C18.62 14.8732 16.4467 14.0549 14.33 13.3299C12.4861 12.7004 10.629 12.1103 8.76 11.5599L8.76667 11.6016C9.05 13.2016 9.45334 15.3616 9.92834 17.5999C10.4033 19.8432 10.945 22.1382 11.505 24.0232C11.7867 24.9666 12.0633 25.7816 12.33 26.4216C12.6133 27.0999 12.8267 27.4449 12.9333 27.5682C13.07 27.7232 13.5117 27.9849 14.585 28.0566C15.5867 28.1232 16.81 28.0032 18.05 27.7849C19.4261 27.5368 20.7854 27.2051 22.12 26.7882ZM18.47 42.6782C18.0467 42.7016 17.84 42.7616 17.7867 42.7849C17.0317 43.1266 14.7383 43.9266 12.7583 44.6016C11.7417 44.9499 10.7667 45.2766 10.0467 45.5182L10 45.5349V54.5399C10.2933 54.5266 10.6083 54.5149 10.93 54.5032C12.31 54.4532 13.9517 54.4032 14.6633 54.4332C17.65 54.5516 19.8933 55.2582 21.97 55.9132L22.015 55.9282C23.9617 56.5416 25.765 57.1049 28.1267 57.2832C28.7933 57.3332 29.4417 57.3982 30.0467 57.4582H30.055C32.3783 57.6916 33.9083 57.8082 35.0933 57.3782C36.015 57.0432 39.39 55.4782 42.7933 53.7666C44.4767 52.9199 46.1267 52.0582 47.4383 51.3199C48.0967 50.9499 48.655 50.6199 49.0833 50.3432C49.2967 50.2049 49.4667 50.0882 49.5967 49.9932C49.6478 49.9558 49.6978 49.9169 49.7467 49.8766L49.7933 49.8366C49.96 49.6682 50.1367 49.0816 49.85 48.5299C49.7151 48.2719 49.4922 48.0709 49.2217 47.9632C48.8883 47.8182 48.3217 47.7066 47.4217 47.8549C45.3917 48.1882 42.9667 49.1649 40.545 50.1499L40.5117 50.1649C39.3217 50.6482 38.1283 51.1332 37.07 51.4866C36.0533 51.8249 34.925 52.1282 33.9417 52.0699C32.5917 51.9866 30.2233 51.6366 28.27 51.3199C27.1475 51.1384 26.0263 50.9484 24.9067 50.7499L24.69 50.7116L24.6133 50.6966L24.93 47.3899L32.5467 47.4816H32.5633C32.6523 47.4719 32.7404 47.4552 32.8267 47.4316C33.09 47.3649 33.5417 47.1999 34.11 46.7982C34.285 46.6732 34.515 46.4432 34.73 46.1349C34.8132 46.0141 34.8889 45.8883 34.9567 45.7582C34.028 45.6991 33.1053 45.5687 32.1967 45.3682C31.7019 45.2605 31.211 45.1354 30.725 44.9932L30.6683 44.9766L21.34 42.8999L21.2517 42.8849C20.7551 42.8024 20.2552 42.7413 19.7533 42.7016C19.3265 42.6661 18.8978 42.6584 18.47 42.6782ZM21.6667 41.2666L21.9683 39.6282L21.9983 39.6332L31.5283 41.7532L31.5983 41.7749L31.6117 41.7799L31.675 41.7982L31.9383 41.8732C32.17 41.9366 32.5033 42.0232 32.9 42.1099C33.71 42.2849 34.7233 42.4466 35.66 42.4466C36.5983 42.4466 37.6183 42.7966 38.1683 43.7932C38.6383 44.6466 38.5217 45.5699 38.3567 46.1799C38.2035 46.7192 37.9752 47.2343 37.6783 47.7099C38.185 47.5099 38.7233 47.2932 39.2883 47.0632L39.3917 47.0199C41.6883 46.0866 44.4417 44.9666 46.88 44.5649C49.7133 44.1016 51.8383 45.1182 52.81 46.9982C53.6667 48.6566 53.4767 50.8432 52.1683 52.1732C51.84 52.5066 51.3517 52.8449 50.885 53.1466C50.2907 53.5228 49.686 53.8824 49.0717 54.2249C47.6967 54.9982 45.995 55.8866 44.2883 56.7449C40.9183 58.4399 37.3683 60.0982 36.2283 60.5116C34.2517 61.2282 31.965 60.9999 29.9333 60.7966L29.7217 60.7749C29.1068 60.7118 28.4912 60.6563 27.875 60.6082C25.1083 60.3982 22.9883 59.7299 21.0517 59.1199L21.01 59.1066C18.9267 58.4499 17.05 57.8649 14.53 57.7632C13.9767 57.7416 12.4867 57.7816 11.05 57.8349C10.241 57.8642 9.43208 57.897 8.62334 57.9332L8.40834 57.9432L6.665 58.0232V43.1299L8.12667 42.6449C9.31271 42.2507 10.4972 41.8519 11.68 41.4482C13.7533 40.7399 15.8433 40.0049 16.4133 39.7482C17.025 39.4716 17.72 39.3816 18.2767 39.3482C18.8683 39.3149 19.4767 39.3399 20.0083 39.3799C20.6483 39.43 21.2857 39.5095 21.9183 39.6182L21.9533 39.6249H21.9633L21.9667 39.6266H21.97L21.6667 41.2666Z" fill="url(#paint0_radial_1_51)"/>
<path fill-rule="evenodd" clip-rule="evenodd" d="M48.5833 13.0666C48.7497 13.2089 48.8864 13.3825 48.9856 13.5776C49.0849 13.7727 49.1447 13.9854 49.1617 14.2036C49.1788 14.4219 49.1526 14.6413 49.0848 14.8494C49.0171 15.0575 48.9089 15.2503 48.7667 15.4166C43.7983 21.2133 37.6133 29.7083 34.8833 36.6133C34.8028 36.8168 34.6829 37.0025 34.5306 37.1598C34.3783 37.317 34.1965 37.4427 33.9957 37.5297C33.7948 37.6166 33.5787 37.6632 33.3598 37.6667C33.141 37.6702 32.9235 37.6305 32.72 37.5499C32.5164 37.4694 32.3308 37.3496 32.1735 37.1972C32.0163 37.0449 31.8906 36.8632 31.8036 36.6623C31.7166 36.4614 31.6701 36.2453 31.6666 36.0265C31.6631 35.8076 31.7028 35.5902 31.7833 35.3866C34.7217 27.9549 41.2017 19.1199 46.2333 13.2483C46.5211 12.9128 46.9304 12.7054 47.3711 12.6716C47.8118 12.6379 48.2478 12.7805 48.5833 13.0683V13.0666ZM15.6333 18.4133C15.4615 18.5489 15.318 18.7171 15.2112 18.9083C15.1043 19.0994 15.0362 19.3097 15.0106 19.5271C14.9851 19.7446 15.0027 19.965 15.0623 20.1756C15.122 20.3863 15.2226 20.5832 15.3583 20.7549C19.095 25.4966 23.175 31.5649 25.1117 36.5983C25.2779 37 25.5946 37.3209 25.9941 37.4924C26.3937 37.6639 26.8444 37.6725 27.2502 37.5164C27.6559 37.3603 27.9846 37.0517 28.1661 36.6566C28.3476 36.2616 28.3676 35.8112 28.2217 35.4016C26.1033 29.8949 21.775 23.5099 17.975 18.6916C17.7015 18.3445 17.3014 18.1202 16.8626 18.068C16.4238 18.0158 15.9806 18.14 15.6333 18.4133Z" fill="url(#paint1_radial_1_51)"/>
<path d="M0 39.3333H10V60.9999H0V39.3333Z" fill="url(#paint2_radial_1_51)"/>
<defs>
<radialGradient id="paint0_radial_1_51" cx="0" cy="0" r="1" gradientUnits="userSpaceOnUse" gradientTransform="translate(57.7819 23.9891) rotate(148.597) scale(71.0303 438.121)">
<stop stop-color="#E9B633"/>
<stop offset="1" stop-color="#BE6D3F"/>
</radialGradient>
<radialGradient id="paint1_radial_1_51" cx="0" cy="0" r="1" gradientUnits="userSpaceOnUse" gradientTransform="translate(47.6186 22.274) rotate(157.522) scale(40.2605 197.269)">
<stop stop-color="#E9B633"/>
<stop offset="1" stop-color="#BE6D3F"/>
</radialGradient>
<radialGradient id="paint2_radial_1_51" cx="0" cy="0" r="1" gradientUnits="userSpaceOnUse" gradientTransform="translate(9.54688 47.6595) rotate(129.22) scale(17.2197 116.99)">
<stop stop-color="#E9B633"/>
<stop offset="1" stop-color="#BE6D3F"/>
</radialGradient>
</defs>
</svg>
