<svg width="60" height="60" viewBox="0 0 60 60" fill="none" xmlns="http://www.w3.org/2000/svg">
<path d="M30.6341 12.6724C30.442 12.5595 30.2232 12.4999 30.0003 12.4999C29.7775 12.4999 29.5587 12.5595 29.3666 12.6724L7.03906 25.8062L8.30656 27.9612L30.0003 15.1999L51.6941 27.9624L52.9616 25.8074L45.0003 21.1249V14.9999C45.0003 14.6684 44.8686 14.3505 44.6342 14.1161C44.3998 13.8816 44.0818 13.7499 43.7503 13.7499H40.0003C39.6688 13.7499 39.3508 13.8816 39.1164 14.1161C38.882 14.3505 38.7503 14.6684 38.7503 14.9999V17.4462L30.6341 12.6724ZM17.5003 31.2499H31.2503V38.7499H17.5003V31.2499Z" fill="#275122" fill-opacity="0.5"/>
<path fill-rule="evenodd" clip-rule="evenodd" d="M30 17.5L12.5 27.5V45H6.25C5.91848 45 5.60054 45.1317 5.36612 45.3661C5.1317 45.6005 5 45.9185 5 46.25C5 46.5815 5.1317 46.8995 5.36612 47.1339C5.60054 47.3683 5.91848 47.5 6.25 47.5H51.25C51.5815 47.5 51.8995 47.3683 52.1339 47.1339C52.3683 46.8995 52.5 46.5815 52.5 46.25C52.5 45.9185 52.3683 45.6005 52.1339 45.3661C51.8995 45.1317 51.5815 45 51.25 45H47.5V27.5L30 17.5ZM30 20.3787L15 28.9512V45H35V31.25H42.5V45H45V28.95L30 20.3787Z" fill="#275122" fill-opacity="0.5"/>
</svg>
