<svg width="36" height="36" viewBox="0 0 36 36" fill="none" xmlns="http://www.w3.org/2000/svg">
<path d="M17.13 32.7225C17.3844 32.9025 17.6884 32.9992 18 32.9992C18.3117 32.9992 18.6156 32.9025 18.87 32.7225C19.326 32.397 30.0435 24.66 30 15C30 8.3835 24.6165 3 18 3C11.3835 3 6.00001 8.3835 6.00001 14.994C5.95651 24.66 16.674 32.397 17.13 32.7225ZM18 6C22.9635 6 27 10.0365 27 15.006C27.0315 21.663 20.418 27.6405 18 29.6025C15.5835 27.6405 8.96851 21.663 9.00001 15C9.00001 10.0365 13.0365 6 18 6Z" fill="white" fill-opacity="0.5"/>
<path d="M16.5 21H19.5V16.5H24V13.5H19.5V9H16.5V13.5H12V16.5H16.5V21Z" fill="white" fill-opacity="0.5"/>
</svg>
