<svg width="60" height="60" viewBox="0 0 60 60" fill="none" xmlns="http://www.w3.org/2000/svg">
<path fill-rule="evenodd" clip-rule="evenodd" d="M30 33.3333C39.2083 33.3333 46.6667 25.875 46.6667 16.6667C46.6667 7.45833 39.2083 0 30 0C20.7917 0 13.3333 7.45833 13.3333 16.6667C13.3333 25.875 20.7917 33.3333 30 33.3333ZM43.3333 16.6667C43.3333 24.0333 37.3667 30 30 30C22.6333 30 16.6667 24.0333 16.6667 16.6667C16.6667 9.3 22.6333 3.33333 30 3.33333C37.3667 3.33333 43.3333 9.3 43.3333 16.6667ZM38.3917 36.4567L33.3333 50.9067V50L32.375 43.2983C32.6809 43.2339 32.9626 43.0847 33.1877 42.8678C33.4129 42.6509 33.5725 42.375 33.6483 42.0717L34.4817 38.7383C34.5432 38.4927 34.548 38.2363 34.4956 37.9886C34.4432 37.7409 34.3351 37.5083 34.1794 37.3086C34.0237 37.1089 33.8246 36.9473 33.5971 36.8361C33.3697 36.7249 33.1199 36.6669 32.8667 36.6667H27.1367C26.8835 36.6667 26.6337 36.7245 26.4062 36.8355C26.1786 36.9465 25.9794 37.1079 25.8236 37.3075C25.6678 37.507 25.5594 37.7394 25.5068 37.987C25.4542 38.2347 25.4587 38.491 25.52 38.7367L26.3533 42.07C26.4289 42.3736 26.5884 42.6498 26.8136 42.8671C27.0387 43.0843 27.3205 43.2337 27.6267 43.2983L26.69 49.8517L21.6 36.4383L21.5667 36.3667C21.3207 35.8617 20.9098 35.4559 20.4019 35.2162C19.894 34.9764 19.3195 34.9172 18.7733 35.0483C18.205 35.1867 17.5783 35.3317 16.9167 35.4883C15.355 35.8533 13.5933 36.265 11.9233 36.73C9.56833 37.3867 7.12833 38.2133 5.43333 39.3267C2.31167 41.3767 0 44.0883 0 47.5V60H60V47.5C60 44.0883 57.69 41.375 54.5667 39.3267C52.8733 38.2133 50.4333 37.3867 48.0783 36.73C46.4226 36.2819 44.7578 35.868 43.085 35.4883C42.4655 35.3445 41.8466 35.1978 41.2283 35.0483C40.6824 34.9173 40.1082 34.9766 39.6005 35.2163C39.0929 35.4561 38.6823 35.8619 38.4367 36.3667L38.3917 36.4567ZM42.4067 38.7533L41.2183 38.4733L34.8483 56.6667H56.6667V47.5C56.6667 45.7567 55.4933 43.9217 52.7383 42.1133C51.515 41.3083 49.5217 40.5917 47.185 39.9417C45.6012 39.5125 44.007 39.1163 42.4067 38.7533ZM18.8033 38.4683L25.7083 56.6667H3.33333V47.5C3.33333 45.7567 4.50667 43.9217 7.26167 42.1133C8.485 41.3083 10.4783 40.5917 12.815 39.9417C14.3987 39.512 15.9913 39.1158 17.5917 38.7533L18.8033 38.4683Z" fill="url(#paint0_radial_1_58)"/>
<defs>
<radialGradient id="paint0_radial_1_58" cx="0" cy="0" r="1" gradientUnits="userSpaceOnUse" gradientTransform="translate(57.2813 23.0572) rotate(150.512) scale(75.0502 445.999)">
<stop stop-color="#E9B633"/>
<stop offset="1" stop-color="#BE6D3F"/>
</radialGradient>
</defs>
</svg>
