<svg width="60" height="61" viewBox="0 0 60 61" fill="none" xmlns="http://www.w3.org/2000/svg">
<path fill-rule="evenodd" clip-rule="evenodd" d="M30 33C36.9062 33 42.5 27.4062 42.5 20.5C42.5 13.5938 36.9062 8 30 8C23.0938 8 17.5 13.5938 17.5 20.5C17.5 27.4062 23.0938 33 30 33ZM40 20.5C40 26.025 35.525 30.5 30 30.5C24.475 30.5 20 26.025 20 20.5C20 14.975 24.475 10.5 30 10.5C35.525 10.5 40 14.975 40 20.5ZM36.2938 35.3425L32.5 46.18V45.5L31.7812 40.4738C32.0107 40.4254 32.2219 40.3135 32.3908 40.1508C32.5597 39.9881 32.6794 39.7812 32.7362 39.5537L33.3612 37.0537C33.4074 36.8695 33.411 36.6772 33.3717 36.4914C33.3324 36.3056 33.2513 36.1312 33.1346 35.9815C33.0178 35.8317 32.8685 35.7105 32.6979 35.6271C32.5273 35.5437 32.3399 35.5002 32.15 35.5H27.8525C27.6626 35.5001 27.4753 35.5434 27.3046 35.6266C27.134 35.7099 26.9846 35.831 26.8677 35.9806C26.7508 36.1302 26.6696 36.3045 26.6301 36.4903C26.5907 36.676 26.5941 36.8683 26.64 37.0525L27.265 39.5525C27.3217 39.7802 27.4413 39.9874 27.6102 40.1503C27.7791 40.3132 27.9904 40.4253 28.22 40.4738L27.5175 45.3887L23.7 35.3288L23.675 35.275C23.4905 34.8963 23.1824 34.5919 22.8014 34.4121C22.4205 34.2323 21.9896 34.1879 21.58 34.2862C21.1537 34.39 20.6837 34.4987 20.1875 34.6162C19.0162 34.89 17.695 35.1987 16.4425 35.5475C14.6763 36.04 12.8463 36.66 11.575 37.495C9.23375 39.0325 7.5 41.0662 7.5 43.625V53H52.5V43.625C52.5 41.0662 50.7675 39.0312 48.425 37.495C47.155 36.66 45.325 36.04 43.5588 35.5475C42.3169 35.2115 41.0683 34.901 39.8138 34.6162C39.3491 34.5083 38.8849 34.3983 38.4212 34.2862C38.0118 34.188 37.5811 34.2325 37.2004 34.4122C36.8197 34.592 36.5117 34.8964 36.3275 35.275L36.2938 35.3425ZM39.305 37.065L38.4138 36.855L33.6362 50.5H50V43.625C50 42.3175 49.12 40.9412 47.0538 39.585C46.1363 38.9812 44.6413 38.4438 42.8888 37.9562C41.7009 37.6344 40.5052 37.3372 39.305 37.065ZM21.6025 36.8512L26.7812 50.5H10V43.625C10 42.3175 10.88 40.9412 12.9463 39.585C13.8638 38.9812 15.3588 38.4438 17.1112 37.9562C18.299 37.634 19.4934 37.3369 20.6938 37.065L21.6025 36.8512Z" fill="#275122" fill-opacity="0.5"/>
</svg>
