<svg width="100" height="100" viewBox="0 0 100 100" fill="none" xmlns="http://www.w3.org/2000/svg">
<path fill-rule="evenodd" clip-rule="evenodd" d="M30.2083 29.1667C32.4185 29.1667 34.5381 28.2887 36.1009 26.7259C37.6637 25.1631 38.5417 23.0435 38.5417 20.8333C38.5417 18.6232 37.6637 16.5036 36.1009 14.9408C34.5381 13.378 32.4185 12.5 30.2083 12.5C27.9982 12.5 25.8786 13.378 24.3158 14.9408C22.753 16.5036 21.875 18.6232 21.875 20.8333C21.875 23.0435 22.753 25.1631 24.3158 26.7259C25.8786 28.2887 27.9982 29.1667 30.2083 29.1667ZM30.2083 25C31.3134 25 32.3732 24.561 33.1546 23.7796C33.936 22.9982 34.375 21.9384 34.375 20.8333C34.375 19.7283 33.936 18.6685 33.1546 17.8871C32.3732 17.1057 31.3134 16.6667 30.2083 16.6667C29.1033 16.6667 28.0435 17.1057 27.2621 17.8871C26.4807 18.6685 26.0417 19.7283 26.0417 20.8333C26.0417 21.9384 26.4807 22.9982 27.2621 23.7796C28.0435 24.561 29.1033 25 30.2083 25ZM19.5208 35.0854C21.5875 33.8437 23.8646 33.3333 26.1375 33.3333H34.2792C36.55 33.3333 38.8292 33.8437 40.8958 35.0854C42.9562 36.325 44.4354 38.0708 45.4604 39.9667C47.3979 43.5437 47.9167 48.0167 47.9167 52.3833V52.5667C47.9171 52.6286 47.9143 52.6905 47.9083 52.7521L47.8917 52.9354V52.9625L47.8875 53.0542C47.8806 53.568 47.8799 54.082 47.8854 54.5958C47.8854 54.8354 47.8896 55.0958 47.8937 55.3708V55.3792C47.9042 56.2271 47.9167 57.2396 47.9167 58.3333C47.9167 59.2422 47.7184 60.1402 47.3357 60.9646C46.9531 61.7891 46.3952 62.5201 45.701 63.1068C45.0068 63.6935 44.193 64.1217 43.3163 64.3616C42.4396 64.6015 41.5212 64.6473 40.625 64.4958V82.2917C40.6242 83.6186 40.117 84.8953 39.2068 85.8609C38.2967 86.8266 37.0523 87.4084 35.7276 87.4877C34.403 87.5669 33.0981 87.1376 32.0794 86.2873C31.0606 85.437 30.4048 84.2299 30.2458 82.9125L30.2083 82.6042L30.1708 82.9125C30.0119 84.2299 29.3561 85.437 28.3373 86.2873C27.3185 87.1376 26.0136 87.5669 24.689 87.4877C23.3644 87.4084 22.12 86.8266 21.2098 85.8609C20.2997 84.8953 19.7924 83.6186 19.7917 82.2917V64.4958C18.8955 64.6473 17.977 64.6015 17.1003 64.3616C16.2237 64.1217 15.4099 63.6935 14.7157 63.1068C14.0215 62.5201 13.4636 61.7891 13.0809 60.9646C12.6983 60.1402 12.5 59.2422 12.5 58.3333C12.5 57.2375 12.5125 56.225 12.5229 55.375L12.5312 54.5958C12.5374 54.082 12.5374 53.568 12.5312 53.0542L12.5271 52.9625L12.525 52.9354L12.5083 52.7521C12.5028 52.6904 12.5 52.6286 12.5 52.5667V52.3833C12.5 48.0167 13.0208 43.5437 14.9562 39.9667C15.9812 38.0708 17.4604 36.325 19.5208 35.0854ZM41.6667 60.4167C41.301 60.4182 40.9416 60.3226 40.625 60.1396V47.9167H36.4583V82.2917C36.4567 82.556 36.3547 82.8098 36.1729 83.0017C35.9911 83.1936 35.7432 83.3092 35.4793 83.3251C35.2155 83.341 34.9554 83.256 34.7519 83.0873C34.5484 82.9186 34.4167 82.6789 34.3833 82.4167L32.2771 64.8687C32.2169 64.3624 31.973 63.8957 31.5917 63.5571C31.2105 63.2185 30.7183 63.0315 30.2083 63.0315C29.6984 63.0315 29.2062 63.2185 28.8249 63.5571C28.4437 63.8957 28.1998 64.3624 28.1396 64.8687L26.0354 82.4167C26.0063 82.6825 25.8761 82.927 25.6717 83.0995C25.4672 83.2719 25.2043 83.3592 24.9374 83.3431C24.6704 83.327 24.4198 83.2089 24.2376 83.0132C24.0553 82.8174 23.9553 82.5591 23.9583 82.2917V47.9167H19.7917V60.1396C19.4748 60.3225 19.1154 60.4188 18.7495 60.4187C18.3836 60.4186 18.0242 60.3222 17.7075 60.1391C17.3907 59.956 17.1277 59.6927 16.945 59.3757C16.7623 59.0587 16.6663 58.6992 16.6667 58.3333C16.6667 57.2667 16.6792 56.2729 16.6875 55.4208C16.6938 55.1458 16.6958 54.8833 16.6979 54.6396C16.7104 53.5917 16.7062 52.9188 16.675 52.5667L16.6667 52.475V52.3833C16.6667 48.225 17.1875 44.6 18.6208 41.95C19.3562 40.5875 20.3542 39.4479 21.6687 38.6583C22.9833 37.8667 24.4937 37.5 26.1375 37.5H34.2792C35.9229 37.5 37.4333 37.8667 38.7479 38.6562C40.0604 39.4479 41.0604 40.5875 41.7958 41.9479C43.2312 44.6 43.75 48.225 43.75 52.3812V52.475L43.7417 52.5667C43.7104 52.9208 43.7083 53.5917 43.7188 54.6396C43.7188 54.8792 43.7229 55.1396 43.7271 55.4125V55.4229C43.7375 56.275 43.75 57.2646 43.75 58.3333C43.75 58.8859 43.5305 59.4158 43.1398 59.8065C42.7491 60.1972 42.2192 60.4167 41.6667 60.4167ZM79.1667 20.8333C79.1667 23.0435 78.2887 25.1631 76.7259 26.7259C75.1631 28.2887 73.0435 29.1667 70.8333 29.1667C68.6232 29.1667 66.5036 28.2887 64.9408 26.7259C63.378 25.1631 62.5 23.0435 62.5 20.8333C62.5 18.6232 63.378 16.5036 64.9408 14.9408C66.5036 13.378 68.6232 12.5 70.8333 12.5C73.0435 12.5 75.1631 13.378 76.7259 14.9408C78.2887 16.5036 79.1667 18.6232 79.1667 20.8333ZM75 20.8333C75 21.9384 74.561 22.9982 73.7796 23.7796C72.9982 24.561 71.9384 25 70.8333 25C69.7283 25 68.6685 24.561 67.8871 23.7796C67.1056 22.9982 66.6667 21.9384 66.6667 20.8333C66.6667 19.7283 67.1056 18.6685 67.8871 17.8871C68.6685 17.1057 69.7283 16.6667 70.8333 16.6667C71.9384 16.6667 72.9982 17.1057 73.7796 17.8871C74.561 18.6685 75 19.7283 75 20.8333ZM78.0125 34.2583C76.7385 33.6336 75.3355 33.3168 73.9167 33.3333H65.6667C64.7708 33.3333 63.2083 33.4333 61.5687 34.2583C58.7979 35.6542 57.2146 37.9396 56.275 39.9583C55.375 41.8917 54.8583 44.0292 54.4729 45.8083C54.1083 47.4979 54.0979 47.5417 53.8896 48.6104C53.6917 49.6312 53.3042 51.6312 52.2042 57.1042C52.0158 58.0423 52.0454 59.0112 52.2907 59.9361C52.5359 60.861 52.9902 61.7172 53.6186 62.4388C54.247 63.1604 55.0327 63.7281 55.9152 64.0981C56.7976 64.4681 57.7532 64.6305 58.7083 64.5729L57.5854 71.0312C57.2729 72.8229 58.1771 74.775 60.1062 75.4625C63.2192 76.5461 66.4934 77.0941 69.7896 77.0833C74.1542 77.0833 77.5812 76.1375 79.4729 75.4625C81.4021 74.775 82.3042 72.8208 81.9937 71.0333L80.8688 64.575C81.8239 64.631 82.7792 64.4673 83.6612 64.0966C84.5433 63.7258 85.3286 63.1578 85.9569 62.4362C86.5851 61.7146 87.0397 60.8585 87.2855 59.9338C87.5313 59.0092 87.5619 58.0404 87.375 57.1021C86.275 51.6292 85.8875 49.6292 85.6875 48.6083C85.4792 47.5417 85.4729 47.4979 85.1063 45.8083C84.7229 44.0292 84.2042 41.8917 83.3062 39.9583C82.3646 37.9396 80.7854 35.6542 78.0125 34.2583ZM72.9125 37.5H73.9125C74.5062 37.5 75.3292 37.5708 76.1396 37.9792C77.7917 38.8125 78.8271 40.2083 79.5292 41.7167C80.2167 43.1958 80.6583 44.9396 81.0354 46.6896C81.3958 48.35 81.4 48.3771 81.5958 49.3792L81.6 49.4042C81.8 50.4354 82.1917 52.4396 83.2917 57.925C83.3705 58.3195 83.3334 58.7284 83.1848 59.1023C83.0363 59.4761 82.7827 59.799 82.4546 60.0319C82.1266 60.2647 81.7381 60.3976 81.3362 60.4145C80.9342 60.4314 80.536 60.3316 80.1896 60.1271L77.7188 46.5354L73.6188 47.2812L74.9229 54.4479L74.8729 54.3937L77.8667 71.6104C75.2643 72.4837 72.5366 72.9249 69.7917 72.9167C66.1812 72.9167 63.3271 72.1667 61.7167 71.6104L64.7104 54.4021L64.6583 54.4583L65.9646 47.2812L61.8646 46.5354L59.3937 60.1271C59.0472 60.3318 58.6487 60.4318 58.2465 60.4148C57.8443 60.3979 57.4556 60.2648 57.1275 60.0316C56.7993 59.7984 56.5458 59.4752 56.3974 59.101C56.2491 58.7268 56.2124 58.3176 56.2917 57.9229C57.3917 52.4396 57.7833 50.4354 57.9833 49.4042L57.9875 49.3812C58.1833 48.375 58.1875 48.35 58.5479 46.6896C58.925 44.9396 59.3667 43.1958 60.0542 41.7167C60.7562 40.2083 61.7917 38.8104 63.4437 37.9792C64.1384 37.6473 64.9012 37.4832 65.6708 37.5H72.9125Z" fill="url(#paint0_radial_1_123)"/>
<path d="M63.0938 87.3187C62.3508 87.2111 61.6715 86.8397 61.1799 86.2724C60.6884 85.7051 60.4174 84.9798 60.4167 84.2292V79.1667C63.1354 79.5417 65.6396 79.7708 68.0875 79.8646L66.5375 85.1104C66.3248 85.831 65.8597 86.4508 65.2272 86.8564C64.5948 87.262 63.8374 87.4261 63.0938 87.3187ZM71.3854 79.9042L73.0646 85.175C73.2912 85.8852 73.7643 86.491 74.3984 86.883C75.0324 87.275 75.7858 87.4274 76.5224 87.3127C77.259 87.1981 77.9303 86.8238 78.4152 86.2576C78.9001 85.6914 79.1667 84.9705 79.1667 84.225V79.3583C76.5844 79.6779 73.987 79.8601 71.3854 79.9042Z" fill="url(#paint1_radial_1_123)"/>
<defs>
<radialGradient id="paint0_radial_1_123" cx="0" cy="0" r="1" gradientUnits="userSpaceOnUse" gradientTransform="translate(84.0974 41.3203) rotate(150.512) scale(93.8078 557.473)">
<stop stop-color="#E9B633"/>
<stop offset="1" stop-color="#BE6D3F"/>
</radialGradient>
<radialGradient id="paint1_radial_1_123" cx="0" cy="0" r="1" gradientUnits="userSpaceOnUse" gradientTransform="translate(78.3171 82.3117) rotate(166.135) scale(21.0278 67.8524)">
<stop stop-color="#E9B633"/>
<stop offset="1" stop-color="#BE6D3F"/>
</radialGradient>
</defs>
</svg>
