<svg width="32" height="32" viewBox="0 0 32 32" fill="none" xmlns="http://www.w3.org/2000/svg">
<path d="M23.6093 16.3908C23.4856 16.2668 23.3387 16.1685 23.1769 16.1014C23.0152 16.0344 22.8418 15.9998 22.6667 15.9998C22.4916 15.9998 22.3182 16.0344 22.1564 16.1014C21.9947 16.1685 21.8477 16.2668 21.724 16.3908L19.5987 18.5161C18.6133 18.2228 16.7747 17.5561 15.6093 16.3908C14.444 15.2254 13.7773 13.3868 13.484 12.4014L15.6093 10.2761C15.7333 10.1524 15.8316 10.0055 15.8987 9.8437C15.9657 9.68194 16.0003 9.50855 16.0003 9.33344C16.0003 9.15833 15.9657 8.98493 15.8987 8.82318C15.8316 8.66143 15.7333 8.51449 15.6093 8.39077L10.276 3.05744C10.1523 2.93351 10.0053 2.83519 9.84359 2.76811C9.68184 2.70103 9.50844 2.6665 9.33333 2.6665C9.15822 2.6665 8.98483 2.70103 8.82307 2.76811C8.66132 2.83519 8.51438 2.93351 8.39066 3.05744L4.77466 6.67344C4.268 7.18011 3.98266 7.87611 3.99333 8.58677C4.024 10.4854 4.52666 17.0801 9.724 22.2774C14.9213 27.4748 21.516 27.9761 23.416 28.0081H23.4533C24.1573 28.0081 24.8227 27.7308 25.3267 27.2268L28.9427 23.6108C29.0666 23.4871 29.1649 23.3401 29.232 23.1784C29.2991 23.0166 29.3336 22.8432 29.3336 22.6681C29.3336 22.493 29.2991 22.3196 29.232 22.1578C29.1649 21.9961 29.0666 21.8492 28.9427 21.7254L23.6093 16.3908ZM23.44 25.3401C21.776 25.3121 16.0827 24.8654 11.6093 20.3908C7.12133 15.9028 6.68666 10.1894 6.66 8.55877L9.33333 5.88544L12.7813 9.33344L11.0573 11.0574C10.9006 11.214 10.7854 11.4072 10.7221 11.6195C10.6587 11.8318 10.6493 12.0566 10.6947 12.2734C10.7267 12.4268 11.5093 16.0628 13.7227 18.2761C15.936 20.4894 19.572 21.2721 19.7253 21.3041C19.9421 21.3507 20.167 21.3421 20.3795 21.2789C20.592 21.2158 20.7852 21.1002 20.9413 20.9428L22.6667 19.2188L26.1147 22.6668L23.44 25.3401Z" fill="white" fill-opacity="0.5"/>
</svg>
