<svg width="68" height="68" viewBox="0 0 68 68" fill="none" xmlns="http://www.w3.org/2000/svg">
<path fill-rule="evenodd" clip-rule="evenodd" d="M0.25 5.875C0.25 4.38316 0.842632 2.95242 1.89752 1.89752C2.95242 0.842632 4.38316 0.25 5.875 0.25H62.125C63.6168 0.25 65.0476 0.842632 66.1025 1.89752C67.1574 2.95242 67.75 4.38316 67.75 5.875V62.125C67.75 63.6168 67.1574 65.0476 66.1025 66.1025C65.0476 67.1574 63.6168 67.75 62.125 67.75H5.875C4.38316 67.75 2.95242 67.1574 1.89752 66.1025C0.842632 65.0476 0.25 63.6168 0.25 62.125V5.875ZM22.8588 57.4375L25.7894 59.3256C26.0725 59.5082 26.3996 59.6112 26.7363 59.6236C27.0729 59.6361 27.4067 59.5576 27.7026 59.3965C27.9984 59.2353 28.2454 58.9974 28.4175 58.7078C28.5896 58.4182 28.6805 58.0875 28.6806 57.7506V50.4231C28.6806 50.1388 28.616 49.8582 28.4916 49.6026C28.3672 49.3469 28.1862 49.1229 27.9625 48.9475L15.4244 39.115C15.2278 38.9608 15.0023 38.8474 14.7613 38.7816C14.5203 38.7158 14.2685 38.6988 14.0208 38.7316C13.7731 38.7645 13.5345 38.8465 13.3189 38.9728C13.1034 39.0992 12.9153 39.2674 12.7656 39.4675L8.87313 44.6838C8.72578 44.8812 8.6188 45.1057 8.55828 45.3445C8.49775 45.5833 8.48489 45.8317 8.52041 46.0755C8.55593 46.3193 8.63915 46.5537 8.7653 46.7653C8.89145 46.9769 9.05807 47.1616 9.25563 47.3088L22.8588 57.4375ZM42.5181 59.3256L45.4506 57.4375L59.0519 47.3088C59.2494 47.1616 59.416 46.9769 59.5422 46.7653C59.6684 46.5537 59.7516 46.3193 59.7871 46.0755C59.8226 45.8317 59.8097 45.5833 59.7492 45.3445C59.6887 45.1057 59.5817 44.8812 59.4344 44.6838L55.5419 39.4675C55.3922 39.2674 55.2041 39.0992 54.9886 38.9728C54.773 38.8465 54.5344 38.7645 54.2867 38.7316C54.039 38.6988 53.7872 38.7158 53.5462 38.7816C53.3052 38.8474 53.0797 38.9608 52.8831 39.115L40.345 48.9475C40.1213 49.1229 39.9403 49.3469 39.8159 49.6026C39.6915 49.8582 39.6269 50.1388 39.6269 50.4231V57.7487C39.6267 58.0858 39.7173 58.4167 39.8893 58.7066C40.0613 58.9965 40.3082 59.2346 40.6041 59.396C40.9 59.5574 41.2339 59.636 41.5708 59.6236C41.9076 59.6113 42.2349 59.5083 42.5181 59.3256ZM49.8044 32.6406C49.6375 33.8425 49.4744 35.035 49.51 36.3831L49.9412 37.75L40.4631 45.25L39.0963 43.6413C38.2462 42.355 37.4833 41.0132 36.8125 39.625C35.875 37.75 35.875 35.875 35.875 35.875V24.7488C35.875 22.75 38.035 23.3912 39.1488 24.34C40.2625 25.2887 40.3806 26.1156 40.3806 26.1156L41.4794 31.9169C41.4794 31.9169 41.47 26.6781 41.2094 24.7488C41.1119 24.0175 40.525 22.9994 39.8481 21.82C39.6106 21.4106 39.3774 20.9987 39.1488 20.5844C38.8739 20.0828 38.5939 19.584 38.3088 19.0881C37.7313 18.07 37.2775 17.275 36.8125 16.1875C34.2625 10.2381 37.6056 10.9 39.1 11.77C40.5962 12.64 47.875 20.2019 48.8275 21.6456C49.5738 22.7744 49.7087 24.2931 49.8644 26.005C49.9075 26.4794 49.9525 26.9688 50.0106 27.4675C50.245 29.4588 50.0238 31.0581 49.8044 32.6406ZM18.7975 36.3813C18.835 35.0331 18.67 33.8406 18.5031 32.6388C18.2837 31.0544 18.0644 29.4569 18.2969 27.4675C18.3569 26.9669 18.4 26.4775 18.4431 26.005C18.5969 24.2913 18.7338 22.7725 19.48 21.6437C20.4325 20.2 27.7113 12.6381 29.2075 11.7681C30.7019 10.8981 34.045 10.2362 31.495 16.1856C31.0281 17.2731 30.5762 18.0681 29.9987 19.0862C29.7456 19.5287 29.47 20.0125 29.1587 20.5825C28.9307 20.9975 28.6982 21.41 28.4612 21.82C27.7825 22.9975 27.1975 24.0138 27.0981 24.7469C26.8375 26.6763 26.8281 31.915 26.8281 31.915L27.9269 26.1138C27.9269 26.1138 28.045 25.2869 29.1587 24.3381C30.2725 23.3894 32.4325 22.7481 32.4325 24.7469V35.875C32.4325 35.875 32.4325 37.75 31.495 39.625C30.5575 41.5 30.1 42.2687 29.2112 43.6413L27.8425 45.25L18.3681 37.75L18.7975 36.3813Z" fill="url(#paint0_radial_1_13)"/>
<defs>
<radialGradient id="paint0_radial_1_13" cx="0" cy="0" r="1" gradientUnits="userSpaceOnUse" gradientTransform="translate(64.6914 26.1893) rotate(150.512) scale(84.4315 501.748)">
<stop stop-color="#E9B633"/>
<stop offset="1" stop-color="#BE6D3F"/>
</radialGradient>
</defs>
</svg>
