<svg width="61" height="60" viewBox="0 0 61 60" fill="none" xmlns="http://www.w3.org/2000/svg">
<path d="M1.66667 60C1.22464 60 0.800716 59.8244 0.488156 59.5118C0.175595 59.1993 0 58.7754 0 58.3333V0H3.33333V48.3333H8.42C19.34 48.3333 29.01 46.0533 36.4917 40.78C43.4133 35.9017 48.62 28.3517 51.1633 17.27L47.6083 19.7083C47.4279 19.8352 47.224 19.925 47.0086 19.9725C46.7932 20.0199 46.5705 20.0242 46.3534 19.985C46.1364 19.9457 45.9292 19.8638 45.7441 19.7439C45.5589 19.624 45.3994 19.4686 45.2747 19.2866C45.1501 19.1046 45.0628 18.8997 45.018 18.6837C44.9731 18.4677 44.9716 18.245 45.0135 18.0284C45.0554 17.8118 45.1398 17.6057 45.262 17.422C45.3841 17.2383 45.5415 17.0807 45.725 16.9583L53.015 11.9583C53.2091 11.8252 53.4293 11.7347 53.6609 11.6928C53.8926 11.6509 54.1304 11.6586 54.3589 11.7152C54.5874 11.7719 54.8013 11.8764 54.9864 12.0217C55.1716 12.167 55.3239 12.3499 55.4333 12.5583L59.8083 20.8917C59.9162 21.0859 59.9843 21.2997 60.0083 21.5205C60.0324 21.7414 60.0121 21.9648 59.9486 22.1777C59.8851 22.3906 59.7797 22.5886 59.6386 22.7602C59.4974 22.9317 59.3234 23.0733 59.1267 23.1767C58.9301 23.28 58.7147 23.343 58.4934 23.3619C58.272 23.3808 58.0491 23.3553 57.8378 23.2868C57.6264 23.2183 57.4309 23.1083 57.2627 22.9631C57.0945 22.818 56.957 22.6407 56.8583 22.4417L54.45 17.8533C51.7617 29.705 46.1333 38.0617 38.4133 43.5033C30.1867 49.3033 19.7633 51.6667 8.42 51.6667H3.33333V56.6667H60V60H1.66667Z" fill="url(#paint0_radial_1_39)"/>
<path fill-rule="evenodd" clip-rule="evenodd" d="M21.4283 0C20.3126 0 19.2427 0.443201 18.4537 1.2321C17.6648 2.02101 17.2216 3.09099 17.2216 4.20667V8.89H12.5383C11.4235 8.89044 10.3545 9.33338 9.56601 10.1215C8.77756 10.9096 8.3342 11.9785 8.33331 13.0933V16.9033C8.33331 18.019 8.77651 19.089 9.56542 19.8779C10.3543 20.6668 11.4243 21.11 12.54 21.11H17.2233V25.7933C17.2233 26.9084 17.6661 27.9779 18.4542 28.7667C19.2424 29.5555 20.3115 29.9991 21.4266 30H25.2366C26.3523 30 27.4223 29.5568 28.2112 28.7679C29.0001 27.979 29.4433 26.909 29.4433 25.7933V21.11H34.1266C35.2417 21.11 36.3112 20.6673 37.1 19.8791C37.8888 19.0909 38.3324 18.0218 38.3333 16.9067V13.0967C38.3333 11.981 37.8901 10.911 37.1012 10.1221C36.3123 9.3332 35.2423 8.89 34.1266 8.89H29.4433V4.20667C29.4433 3.09157 29.0006 2.02209 28.2124 1.23328C27.4242 0.444475 26.3551 0.000883598 25.24 0H21.4283ZM20.8116 3.58833C20.9753 3.42506 21.1971 3.33335 21.4283 3.33333H25.2383C25.4699 3.33333 25.6921 3.42534 25.8559 3.58913C26.0196 3.75291 26.1116 3.97504 26.1116 4.20667V10.5567C26.1116 10.9987 26.2872 11.4226 26.5998 11.7352C26.9124 12.0477 27.3363 12.2233 27.7783 12.2233H34.1283C34.3594 12.2238 34.5808 12.3158 34.7442 12.4791C34.9076 12.6425 34.9995 12.864 35 13.095V16.905C35 17.1366 34.908 17.3588 34.7442 17.5225C34.5804 17.6863 34.3583 17.7783 34.1266 17.7783H27.7766C27.3346 17.7783 26.9107 17.9539 26.5981 18.2665C26.2856 18.579 26.11 19.003 26.11 19.445V25.795C26.1095 26.026 26.0176 26.2475 25.8542 26.4109C25.6908 26.5742 25.4694 26.6662 25.2383 26.6667H21.4283C21.1967 26.6667 20.9746 26.5747 20.8108 26.4109C20.647 26.2471 20.555 26.025 20.555 25.7933V19.4433C20.555 19.0013 20.3794 18.5774 20.0668 18.2648C19.7543 17.9523 19.3303 17.7767 18.8883 17.7767H12.5383C12.3073 17.7762 12.0858 17.6842 11.9224 17.5209C11.7591 17.3575 11.6671 17.136 11.6666 16.905V13.095C11.6666 12.8634 11.7587 12.6412 11.9224 12.4775C12.0862 12.3137 12.3084 12.2217 12.54 12.2217H18.89C19.332 12.2217 19.7559 12.0461 20.0685 11.7335C20.3811 11.4209 20.5566 10.997 20.5566 10.555V4.205C20.5566 3.975 20.6483 3.75333 20.8116 3.58833Z" fill="url(#paint1_radial_1_39)"/>
<defs>
<radialGradient id="paint0_radial_1_39" cx="0" cy="0" r="1" gradientUnits="userSpaceOnUse" gradientTransform="translate(57.2986 23.0572) rotate(150.519) scale(75.0675 446.031)">
<stop stop-color="#E9B633"/>
<stop offset="1" stop-color="#BE6D3F"/>
</radialGradient>
<radialGradient id="paint1_radial_1_39" cx="0" cy="0" r="1" gradientUnits="userSpaceOnUse" gradientTransform="translate(36.9739 11.5286) rotate(150.512) scale(37.5251 222.999)">
<stop stop-color="#E9B633"/>
<stop offset="1" stop-color="#BE6D3F"/>
</radialGradient>
</defs>
</svg>
