<svg width="60" height="60" viewBox="0 0 60 60" fill="none" xmlns="http://www.w3.org/2000/svg">
<path fill-rule="evenodd" clip-rule="evenodd" d="M35.625 21.875C35.625 23.3668 35.0324 24.7976 33.9775 25.8525C32.9226 26.9074 31.4918 27.5 30 27.5C28.5082 27.5 27.0774 26.9074 26.0225 25.8525C24.9676 24.7976 24.375 23.3668 24.375 21.875C24.375 20.3832 24.9676 18.9524 26.0225 17.8975C27.0774 16.8426 28.5082 16.25 30 16.25C31.4918 16.25 32.9226 16.8426 33.9775 17.8975C35.0324 18.9524 35.625 20.3832 35.625 21.875ZM33.125 21.875C33.125 22.7038 32.7958 23.4987 32.2097 24.0847C31.6237 24.6708 30.8288 25 30 25C29.1712 25 28.3763 24.6708 27.7903 24.0847C27.2042 23.4987 26.875 22.7038 26.875 21.875C26.875 21.0462 27.2042 20.2513 27.7903 19.6653C28.3763 19.0792 29.1712 18.75 30 18.75C30.8288 18.75 31.6237 19.0792 32.2097 19.6653C32.7958 20.2513 33.125 21.0462 33.125 21.875Z" fill="#275122" fill-opacity="0.5"/>
<path fill-rule="evenodd" clip-rule="evenodd" d="M11.255 7.57499C11.5854 7.54731 11.9132 7.65199 12.1664 7.86602C12.4195 8.08004 12.5773 8.38588 12.605 8.71624L12.9637 12.9275C25.4975 10.7075 34.2163 10.6875 47.0363 12.9362L47.3937 8.71624C47.4076 8.55265 47.4536 8.3934 47.529 8.24758C47.6044 8.10175 47.7078 7.97221 47.8332 7.86635C47.9587 7.76049 48.1038 7.68038 48.2603 7.63061C48.4167 7.58083 48.5814 7.56235 48.745 7.57624L51.2362 7.78874C51.5664 7.81673 51.8719 7.97465 52.0857 8.22779C52.2994 8.48093 52.4039 8.80857 52.3763 9.13874L51.965 13.975C52.1448 14.1004 52.2885 14.2709 52.3816 14.4693C52.4748 14.6678 52.5141 14.8873 52.4956 15.1057C52.4771 15.3242 52.4015 15.5339 52.2763 15.7139C52.1511 15.8939 51.9808 16.0378 51.7825 16.1312L51.345 21.2837C51.3311 21.4474 51.2852 21.6068 51.2097 21.7527C51.1342 21.8986 51.0307 22.0282 50.9051 22.1341C50.7794 22.24 50.6342 22.32 50.4776 22.3697C50.321 22.4194 50.1562 22.4378 49.9925 22.4237L47.5025 22.2112C47.1724 22.1832 46.8668 22.0253 46.6531 21.7722C46.4393 21.519 46.3348 21.1914 46.3625 20.8612L46.8225 15.4362C46.1508 15.3176 45.4783 15.2034 44.805 15.0937C44.9256 15.4673 44.9867 15.8575 44.9862 16.25L44.9912 16.6875V16.6975C45.0075 18.1362 45.0512 21.9325 44.605 25.5525C44.355 27.5775 43.9187 29.8762 43.0675 31.77C42.4312 33.1825 41.125 35.2725 38.75 35.995V37.355C39.6812 37.025 40.615 36.7112 41.3875 36.5175C41.8762 36.3925 42.7687 36.1875 43.695 36.27C44.5433 36.3376 45.3519 36.6581 46.0162 37.19C46.4821 37.5693 46.8571 38.0481 47.1138 38.5912C47.3706 39.1343 47.5025 39.728 47.5 40.3287C47.5 41.4825 47.1287 44.2237 46.8325 46.175C46.6737 47.2225 46.5075 48.2225 46.3775 48.9012L46.3662 48.9562C46.275 49.4312 46.1375 50.14 45.7537 50.785V50.7862L45.7513 50.79C45.6637 50.9362 45.27 51.6025 44.4562 52.0925C43.9573 52.393 43.3954 52.5734 42.8147 52.6194C42.2341 52.6655 41.6507 52.5759 41.1107 52.3578C40.5706 52.1398 40.0886 51.7991 39.7028 51.3628C39.317 50.9265 39.0379 50.4064 38.8875 49.8437C38.6625 49.015 38.5962 48.15 38.5625 47.3762C38.5509 47.1263 38.5414 46.8763 38.5337 46.6262C38.5187 46.195 38.5062 45.8012 38.4737 45.4125C37.417 45.7841 36.3495 46.1243 35.2725 46.4325C33.6475 46.8887 31.7687 47.3025 30 47.3025C28.2312 47.3025 26.3537 46.89 24.7275 46.4325C23.6679 46.1293 22.6174 45.795 21.5775 45.43L21.5525 45.7562C21.481 46.7009 21.4035 47.6451 21.32 48.5887C21.2825 49.0475 21.2212 49.7637 20.9262 50.4162C20.6766 50.9695 20.2963 51.4538 19.8182 51.8277C19.34 52.2016 18.7783 52.4538 18.1812 52.5628C17.5841 52.6717 16.9694 52.6341 16.3901 52.4531C15.8107 52.2721 15.2839 51.9532 14.855 51.5237C13.9487 50.6175 13.8275 49.4887 13.75 48.7762L13.725 48.5587C13.7 48.3487 13.6587 48.0737 13.6025 47.7337C13.5062 47.1375 13.38 46.4337 13.2437 45.6687L13.1837 45.335C13.0248 44.4635 12.8764 43.5901 12.7387 42.715C12.625 41.9687 12.5 41.055 12.5 40.3287C12.5 39.28 12.9112 38.0625 13.9837 37.1912C14.7108 36.6067 15.6099 36.2773 16.5425 36.2537C17.2025 36.2287 17.83 36.3362 18.2837 36.4375C18.4075 36.465 18.5175 36.4925 18.6125 36.5162C19.385 36.7112 20.3175 37.025 21.25 37.3537V35.975C21.0936 35.9235 20.9397 35.8647 20.7887 35.7987C19.28 35.1375 18.3 33.8737 17.6937 32.8075C17.4448 32.3699 17.2268 31.9155 17.0412 31.4475C16.3412 29.715 15.92 27.665 15.6462 25.8075C15.05 21.7625 15 17.4812 15 16.25C15 15.8425 15.065 15.45 15.185 15.0837C14.5262 15.1912 13.8575 15.3062 13.1762 15.4287L13.6375 20.8612C13.6652 21.1914 13.5607 21.519 13.3469 21.7722C13.1331 22.0253 12.8276 22.1832 12.4975 22.2112L10.0062 22.4237C9.67609 22.4514 9.34844 22.3469 9.0953 22.1331C8.84216 21.9194 8.68424 21.6139 8.65625 21.2837L8.21875 16.1312C8.01973 16.0385 7.8487 15.895 7.72294 15.715C7.59718 15.535 7.52113 15.3251 7.50249 15.1063C7.48385 14.8876 7.52327 14.6678 7.61677 14.4691C7.71027 14.2705 7.85454 14.1 8.035 13.975L7.62375 9.13749C7.59606 8.80732 7.70058 8.47968 7.91434 8.22654C8.1281 7.9734 8.43361 7.81548 8.76375 7.78749L11.255 7.57499ZM21.8762 14.1775C22.284 14.7917 22.501 15.5128 22.5 16.25C22.5 17.3812 22.5512 21.225 23.0662 24.7137C23.325 26.4712 23.665 27.8712 24.0412 28.75H36.2L36.2125 28.7212L36.2275 28.6912C36.6112 27.8375 36.94 26.4337 37.1612 24.635C37.5387 21.5725 37.5075 18.3187 37.4912 16.81V16.8025L37.4875 16.25C37.4875 15.4887 37.7125 14.7812 38.1025 14.19C32.4775 13.615 27.4187 13.6125 21.8762 14.1775ZM36.25 35.9775V34.975C36.25 34.6651 36.3651 34.3663 36.573 34.1365C36.7808 33.9066 37.0667 33.7622 37.375 33.7312C39.0775 33.5587 40.1512 32.1562 40.7875 30.7437C41.4837 29.1962 41.8838 27.195 42.125 25.2462C42.5487 21.8037 42.5075 18.1512 42.4912 16.715V16.7087L42.4862 16.25C42.4862 15.9185 42.3545 15.6005 42.1201 15.3661C41.8857 15.1317 41.5678 15 41.2362 15C40.9047 15 40.5868 15.1317 40.3524 15.3661C40.1179 15.6005 39.9862 15.9185 39.9862 16.25L39.9912 16.7837V16.7975C40.0062 18.3062 40.0412 21.7025 39.6425 24.9412C39.4125 26.8137 39.0475 28.5162 38.5075 29.7162C38.25 30.2887 37.9987 30.6687 37.7412 30.91C37.5095 31.1282 37.2033 31.2498 36.885 31.25H23.2975C23.1021 31.25 22.9093 31.2043 22.7348 31.1164C22.5603 31.0284 22.4088 30.9008 22.2925 30.7437C22.083 30.4465 21.9069 30.1271 21.7675 29.7912C21.25 28.6062 20.865 26.9287 20.5925 25.0787C20.05 21.4037 20 17.415 20 16.25C20 15.9185 19.8683 15.6005 19.6339 15.3661C19.3995 15.1317 19.0815 15 18.75 15C18.4185 15 18.1005 15.1317 17.8661 15.3661C17.6317 15.6005 17.5 15.9185 17.5 16.25C17.5 17.2437 17.535 20.2587 17.8712 23.4612C17.94 24.1187 18.0212 24.7862 18.1187 25.4437C18.4012 27.36 18.825 29.3012 19.4787 30.7937C20.0487 32.0962 21.0312 33.5537 22.6362 33.7312C22.9423 33.7648 23.2253 33.9102 23.4308 34.1394C23.6363 34.3687 23.75 34.6658 23.75 34.9737V35.9775C24.0537 36.0687 24.44 36.1762 24.895 36.2837C26.1525 36.5787 27.9287 36.875 30 36.875C31.7182 36.8734 33.4307 36.6751 35.1037 36.2837C35.56 36.1762 35.9462 36.0687 36.25 35.9775ZM23.75 38.5737C25.7913 39.1029 27.8913 39.3717 30 39.3737C32.1087 39.3717 34.2087 39.1029 36.25 38.5737V39.1287C36.25 39.329 36.2981 39.5264 36.3903 39.7042C36.4824 39.882 36.616 40.0351 36.7797 40.1505C36.9434 40.2659 37.1324 40.3403 37.3309 40.3674C37.5293 40.3945 37.7314 40.3735 37.92 40.3062L38.6075 40.06C39.885 39.6012 41.0962 39.1687 41.9987 38.94C42.4562 38.825 42.9975 38.7175 43.4737 38.76C43.7162 38.7812 44.0987 38.8525 44.4387 39.13C44.8362 39.4525 45 39.9062 45 40.33C45 41.2512 44.6675 43.7787 44.3612 45.8C44.2311 46.6776 44.0848 47.5527 43.9225 48.425C43.8162 48.9725 43.745 49.2737 43.605 49.5087L43.5988 49.5187C43.4724 49.732 43.2858 49.9032 43.0623 50.0106C42.8389 50.1181 42.5887 50.157 42.3432 50.1225C42.0977 50.088 41.8679 49.9817 41.6827 49.8169C41.4975 49.652 41.3652 49.4361 41.3025 49.1962V49.1937C41.1525 48.6412 41.0925 48.0025 41.0587 47.2625C41.0498 47.0546 41.0419 46.8467 41.035 46.6387C41.0228 46.0808 40.9924 45.5234 40.9437 44.9675L40.8 43.5725C40.7802 43.3843 40.7179 43.203 40.6178 43.0424C40.5177 42.8817 40.3825 42.7459 40.2223 42.6452C40.0621 42.5444 39.8811 42.4814 39.693 42.4608C39.5048 42.4402 39.3145 42.4626 39.1362 42.5262C37.7412 43.0262 36.1537 43.5887 34.5962 44.0262C33.0387 44.4637 31.4237 44.8025 30 44.8025C28.5762 44.8025 26.9612 44.4637 25.4037 44.0262C23.9412 43.6137 22.4512 43.0925 21.12 42.6175L20.8737 42.53C20.6925 42.4652 20.4988 42.4431 20.3076 42.4654C20.1164 42.4878 19.933 42.554 19.7716 42.6589C19.6102 42.7638 19.4752 42.9045 19.3772 43.0701C19.2791 43.2358 19.2206 43.4218 19.2062 43.6137C19.16 44.2262 19.11 44.9037 19.0587 45.5637C18.98 46.58 18.9025 47.5637 18.8425 48.2187L18.8375 48.275C18.785 48.8562 18.7587 49.145 18.6487 49.3862L18.6412 49.4037C18.5557 49.5855 18.4277 49.7439 18.268 49.8657C18.1083 49.9875 17.9216 50.0691 17.7238 50.1036C17.5259 50.138 17.3226 50.1243 17.1312 50.0636C16.9397 50.003 16.7657 49.8971 16.6237 49.755C16.3612 49.4925 16.33 49.245 16.215 48.3225L16.2062 48.25C16.1669 47.9438 16.1219 47.6383 16.0712 47.3337C15.9712 46.715 15.8412 45.9925 15.7062 45.2362L15.6437 44.895C15.4888 44.0443 15.3442 43.1917 15.21 42.3375C15.0937 41.5787 15 40.84 15 40.3287C15 39.9062 15.1625 39.4537 15.5612 39.1287C15.8 38.935 16.0612 38.8412 16.2775 38.7962C16.37 38.7762 16.4537 38.7662 16.525 38.7587C17.0025 38.7175 17.5437 38.825 18 38.94C18.225 38.9975 18.4675 39.065 18.725 39.145C19.45 39.3675 20.2987 39.6675 21.185 39.985L22.08 40.3062C22.2686 40.3735 22.4707 40.3945 22.6691 40.3674C22.8676 40.3403 23.0566 40.2659 23.2203 40.1505C23.384 40.0351 23.5176 39.882 23.6097 39.7042C23.7019 39.5264 23.75 39.329 23.75 39.1287V38.5737Z" fill="#275122" fill-opacity="0.5"/>
</svg>
